<!--?xml version="1.0" standalone="no"?-->
              <svg id="sw-js-blob-svg" viewBox="0 0 100 100" xmlns="http://www.w3.org/2000/svg" version="1.1">
                    <defs> 
                        <linearGradient id="sw-gradient" x1="0" x2="1" y1="1" y2="0">
                            <stop id="stop1" stop-color="rgba(245, 223, 78, 1)" offset="0%"></stop>
                            <stop id="stop2" stop-color="rgba(251, 168, 31, 1)" offset="100%"></stop>
                        </linearGradient>
                    </defs>
                <path fill="url(#sw-gradient)" d="M21.3,-26.3C29.2,-23.6,38.2,-19.5,42.2,-12.5C46.1,-5.5,45,4.4,41,12.3C37,20.1,30.1,26,22.8,30.4C15.5,34.7,7.7,37.6,1.6,35.4C-4.6,33.3,-9.2,26.2,-14,21C-18.7,15.8,-23.6,12.5,-28.7,6.9C-33.9,1.3,-39.3,-6.6,-38.4,-13.5C-37.6,-20.4,-30.4,-26.2,-23,-29C-15.5,-31.8,-7.8,-31.7,-0.5,-30.9C6.7,-30.2,13.4,-29,21.3,-26.3Z" width="100%" height="100%" transform="translate(50 50)" stroke-width="0" style="transition: all 0.3s ease 0s;" stroke="url(#sw-gradient)"></path>
              </svg>